<?xml version="1.0" standalone="no"?>
<!DOCTYPE svg PUBLIC "-//W3C//DTD SVG 20010904//EN"
 "http://www.w3.org/TR/2001/REC-SVG-20010904/DTD/svg10.dtd">
<svg version="1.0" xmlns="http://www.w3.org/2000/svg"
 width="532.000000pt" height="256.000000pt" viewBox="0 0 532.000000 256.000000"
 preserveAspectRatio="xMidYMid meet">

<g transform="translate(0.000000,256.000000) scale(0.100000,-0.100000)"
fill="#000000" stroke="none">
<path d="M0 1280 l0 -1280 2660 0 2660 0 0 1280 0 1280 -2660 0 -2660 0 0
-1280z m1321 823 c17 -38 45 -111 61 -163 17 -52 33 -102 36 -110 3 -8 7 -26
8 -38 2 -13 8 -47 13 -75 12 -58 41 -290 37 -294 -1 -1 -12 4 -24 13 -16 11
-22 25 -22 51 0 109 -65 418 -116 551 -15 37 -30 82 -34 100 -13 55 9 36 41
-35z m1177 -133 c1 -30 -8 -106 -21 -167 l-23 -113 102 0 102 0 11 65 c19 107
32 225 26 234 -7 13 51 31 123 38 l62 6 0 -49 c0 -27 -20 -148 -45 -269 -43
-212 -66 -375 -51 -375 4 0 20 7 36 15 27 14 30 14 40 -6 15 -26 -2 -46 -70
-83 -88 -48 -166 -32 -190 38 -9 28 -7 56 9 148 12 62 24 123 27 135 5 19 1
22 -38 28 -24 4 -70 3 -103 -2 l-60 -8 -27 -130 c-15 -71 -27 -147 -27 -168
-1 -45 -14 -51 -118 -60 -61 -5 -73 -3 -73 9 0 8 22 117 50 242 27 125 56 267
65 316 15 86 14 89 -7 135 -12 25 -22 50 -22 56 -1 15 51 23 139 22 l80 -2 3
-55z m747 22 c6 -37 -5 -94 -79 -414 -24 -107 -43 -238 -33 -238 2 0 20 7 39
15 34 14 36 13 47 -11 10 -23 8 -27 -51 -64 -81 -53 -144 -58 -188 -14 -38 38
-33 119 23 349 61 251 66 293 38 340 -39 66 -32 71 116 74 l81 1 7 -38z
m-2790 -162 c6 -25 -16 -90 -30 -90 -3 0 -5 32 -5 71 0 61 2 70 14 60 8 -7 18
-25 21 -41z m1435 27 c33 -15 33 -16 5 -9 -50 12 -236 5 -310 -11 -69 -15 -91
-12 -77 9 21 34 315 43 382 11z m59 -181 c14 -22 21 -50 21 -84 0 -45 -2 -50
-19 -45 -17 4 -19 11 -14 53 3 27 1 62 -5 79 -14 40 -9 39 17 -3z m35 -231 c6
-22 -16 -85 -29 -85 -3 0 -5 30 -5 66 0 56 2 65 14 55 8 -7 17 -23 20 -36z
m-336 -160 l67 -56 45 51 c33 38 50 50 63 45 25 -10 22 -17 -29 -74 l-45 -50
73 -83 c131 -147 201 -266 218 -372 5 -30 5 -67 0 -83 -8 -26 -8 -26 -9 13 -3
130 -106 289 -324 501 -126 122 -160 163 -136 163 6 0 41 -25 77 -55z m-437
-55 c15 -51 0 -107 -41 -153 l-29 -32 0 145 0 145 29 -32 c16 -18 34 -50 41
-73z m266 -93 c-7 -269 -63 -570 -93 -494 -2 7 2 45 11 85 27 129 45 314 45
460 0 141 0 143 21 132 20 -11 20 -17 16 -183z m172 -23 c-12 -13 -48 -44 -79
-68 -50 -40 -58 -43 -63 -27 -6 26 131 145 151 129 10 -9 9 -15 -9 -34z m962
-153 c27 -27 29 -35 29 -101 0 -103 -34 -153 -114 -170 -30 -6 -30 -6 52 -75
l82 -70 -65 -3 -65 -3 -81 70 c-57 49 -90 71 -112 73 -30 3 -32 6 -35 46 l-3
42 103 0 c131 0 148 9 148 81 l0 49 -135 0 -135 0 0 -180 0 -180 -45 0 -45 0
0 213 c0 152 3 216 12 225 8 8 66 12 196 12 l184 0 29 -29z m649 -16 l0 -45
-165 0 -165 0 0 -128 c0 -86 4 -132 12 -140 8 -8 59 -12 165 -12 l153 0 0 -40
0 -40 -165 0 c-248 0 -248 0 -253 238 -3 137 -1 167 12 187 l16 25 195 0 195
0 0 -45z m638 33 c9 -9 12 -73 12 -225 l0 -213 -45 0 -45 0 0 55 0 55 -140 0
-140 0 0 -55 0 -55 -45 0 -45 0 0 121 c0 66 5 140 11 165 15 57 80 130 134
149 52 18 286 20 303 3z m632 -33 l0 -45 -160 0 -160 0 0 -134 c0 -113 2 -135
16 -140 9 -3 81 -6 160 -6 l144 0 0 -40 0 -40 -171 0 -171 0 -34 34 -34 34 0
155 c0 142 2 156 21 181 12 15 31 32 43 36 11 5 94 9 184 9 l162 1 0 -45z
m610 0 l0 -45 -85 0 -85 0 0 -180 0 -180 -45 0 -45 0 0 180 0 180 -90 0 -90 0
0 45 0 45 220 0 220 0 0 -45z m-1920 -180 l0 -45 -130 0 -130 0 0 45 0 45 130
0 130 0 0 -45z m-1312 -155 c-24 -38 -96 -63 -195 -68 -104 -5 -138 1 -147 24
-6 15 3 16 81 10 98 -8 179 4 233 33 19 11 36 20 38 20 1 1 -3 -8 -10 -19z
m-543 -100 c7 -11 -74 -190 -86 -190 -9 0 -2 31 26 105 12 33 25 68 28 78 7
19 22 23 32 7z m-465 -115 c0 -18 -9 -43 -20 -56 l-19 -24 0 80 0 80 19 -24
c11 -13 20 -38 20 -56z"/>
<path d="M3602 880 c-36 -22 -62 -72 -62 -120 l0 -30 140 0 140 0 0 85 0 85
-92 0 c-76 0 -99 -4 -126 -20z"/>
</g>
</svg>
